<?xml version="1.0" ?>
<!DOCTYPE svg  PUBLIC '-//W3C//DTD SVG 1.1//EN'  'http://www.w3.org/Graphics/SVG/1.1/DTD/svg11.dtd'>
<svg width="800px" height="800px" viewBox="0 0 512 512" version="1.1" xml:space="preserve"
     xmlns="http://www.w3.org/2000/svg" xmlns:xlink="http://www.w3.org/1999/xlink">
<g id="_x36_25_x2C__Addition_x2C__content_x2C__dlc_x2C__download_x2C__game">
<g>
<path d="M316.412,246.403c1.721,0.263,3.029,1.747,3.029,3.554    c0,1.077-0.436,1.893-1.193,2.649l-0.028,0.03l-62.062,62.934c-1.397,1.398-3.64,1.398-5.068,0.029l-63.806-62.934l-0.032-0.029    l-0.056-0.03l-0.088-0.116l-0.204-0.203l0,0c-0.554-0.641-0.874-1.457-0.874-2.33c0-1.98,1.6-3.582,3.583-3.582h32.442V98.109    c-58.539,14.096-99.807,66.663-99.807,126.859c0,36.055,14.621,68.672,38.211,92.262c50.646,50.646,133.354,51.198,184.551,0.029    c23.591-23.619,38.211-56.236,38.211-92.291c0-31.219-10.98-59.905-29.27-82.329c-17.705-21.785-42.346-37.745-70.537-44.53    v148.266h32.445h0.057h0.088h0.031h0.027h0.029l0.234,0.028l0,0H316.412L316.412,246.403z M229.219,249.957    c0,1.951-1.601,3.553-3.58,3.553h-27.318l55.247,54.488l53.758-54.488h-27.49c-1.982,0-3.583-1.602-3.583-3.553    c0-74.381,0-148.731,0-223.082h-47.034V249.957z M337.122,333.744c-49.628,38.529-119.288,38.471-168.74,0H75.187v72.342h144.104    c1.979,0,3.58,1.602,3.58,3.581c0,1.951-1.6,3.583-3.58,3.583H75.187v23.152h355.098V333.744H337.122z M397.113,378.971    c-1.544-1.572-3.699-2.533-6.085-2.533c-2.39,0-4.545,0.961-6.117,2.533c-1.544,1.545-2.534,3.699-2.534,6.088    c0,2.33,0.902,4.427,2.358,5.941l0.176,0.174c1.572,1.544,3.728,2.533,6.117,2.533c2.386,0,4.541-0.959,6.085-2.504    c1.572-1.602,2.534-3.756,2.534-6.145c0-2.301-0.901-4.397-2.358-5.941L397.113,378.971z M391.028,369.274    c4.337,0,8.3,1.776,11.153,4.629l0.263,0.263c2.706,2.826,4.366,6.668,4.366,10.893c0,4.367-1.776,8.3-4.629,11.154    c-2.854,2.883-6.816,4.659-11.153,4.659c-4.37,0-8.332-1.776-11.185-4.631l-0.204-0.233c-2.737-2.825-4.397-6.697-4.397-10.949    c0-4.34,1.748-8.271,4.629-11.155C382.696,371.051,386.658,369.274,391.028,369.274z M355.059,378.971    c-1.572-1.572-3.727-2.533-6.113-2.533c-2.361,0-4.545,0.961-6.089,2.533c-1.572,1.545-2.534,3.729-2.534,6.088    c0,2.389,0.962,4.543,2.534,6.115c1.544,1.574,3.728,2.533,6.089,2.533c2.387,0,4.541-0.959,6.113-2.504    c1.572-1.602,2.534-3.756,2.534-6.145c0-2.301-0.901-4.397-2.358-5.941L355.059,378.971z M43.124,464.215    c-1.979,0-3.583-1.602-3.583-3.583c0-1.979,1.604-3.581,3.583-3.581h343.854c1.982,0,3.583,1.602,3.583,3.581    c0,1.981-1.601,3.583-3.583,3.583H43.124z M244.482,485.125c-1.983,0-3.583-1.603-3.583-3.582c0-1.951,1.601-3.583,3.583-3.583    h237.933c1.979,0,3.584,1.632,3.584,3.583c0,1.979-1.604,3.582-3.584,3.582H244.482z M29.581,484.514    c-1.979,0-3.58-1.632-3.58-3.583c0-1.979,1.6-3.581,3.58-3.581h112.736c1.979,0,3.583,1.602,3.583,3.581    c0,1.951-1.604,3.583-3.583,3.583H29.581z M99.273,207.407c0,1.952-1.632,3.583-3.583,3.583c-1.979,0-3.58-1.631-3.58-3.583    c0-32.937,11.56-63.167,30.87-86.872c19.657-24.113,47.326-41.472,78.953-47.967c1.92-0.379,3.815,0.875,4.222,2.796    c0.379,1.923-0.874,3.815-2.797,4.194c-29.968,6.174-56.205,22.6-74.844,45.461C110.222,147.475,99.273,176.158,99.273,207.407z     M348.945,369.274c4.366,0,8.328,1.776,11.182,4.629l0.235,0.263c2.706,2.826,4.397,6.668,4.397,10.893    c0,4.367-1.779,8.3-4.633,11.154c-2.881,2.883-6.815,4.659-11.182,4.659c-4.341,0-8.271-1.776-11.125-4.631    c-2.885-2.853-4.66-6.815-4.66-11.183c0-4.34,1.775-8.301,4.629-11.155C340.646,371.051,344.604,369.274,348.945,369.274z"
      style="fill-rule:evenodd;clip-rule:evenodd;"/>
</g>
</g>
    <g id="Layer_1"/>
</svg>